<?xml version="1.0" standalone="no"?>
<!DOCTYPE svg PUBLIC "-//W3C//DTD SVG 20010904//EN"
 "http://www.w3.org/TR/2001/REC-SVG-20010904/DTD/svg10.dtd">
<svg version="1.0" xmlns="http://www.w3.org/2000/svg"
 width="512.000000pt" height="512.000000pt" viewBox="0 0 512.000000 512.000000"
 preserveAspectRatio="xMidYMid meet">

<g transform="translate(0.000000,512.000000) scale(0.100000,-0.100000)"
fill="#000000" stroke="none">
<path d="M977 5109 c-91 -21 -176 -91 -224 -181 l-28 -53 0 -2315 0 -2315 28
-53 c36 -69 98 -129 167 -161 l55 -26 1585 0 1585 0 55 26 c69 32 131 92 167
161 l28 53 0 2315 0 2315 -28 53 c-36 69 -98 129 -167 161 l-55 26 -1565 2
c-892 0 -1581 -3 -1603 -8z m701 -826 c50 -148 94 -276 97 -286 7 -16 2 -18
-51 -15 l-59 3 -18 58 -19 58 -100 -3 -101 -3 -20 -57 -19 -58 -54 0 c-30 0
-54 3 -54 8 0 5 146 440 185 550 3 8 25 12 64 12 l59 0 90 -267z m991 -869
c517 -357 778 -759 707 -1092 -31 -147 -117 -267 -233 -324 -58 -28 -79 -33
-162 -36 -110 -4 -173 13 -261 74 l-50 34 0 -39 c0 -61 37 -263 59 -320 l19
-51 -184 0 -185 0 16 30 c21 41 53 197 61 299 l7 83 -50 -36 c-82 -59 -151
-78 -263 -74 -81 3 -105 8 -155 33 -184 89 -285 315 -241 541 56 294 290 585
706 876 52 37 99 67 104 67 4 1 52 -29 105 -65z m1092 -2561 l95 -283 -58 0
-58 0 -17 60 -16 60 -102 0 -102 0 -16 -60 -17 -60 -55 0 c-30 0 -55 4 -55 9
0 8 162 488 185 549 3 9 22 12 62 10 l58 -3 96 -282z"/>
<path d="M1496 4318 c-16 -51 -31 -101 -33 -110 -5 -16 3 -18 65 -18 l70 0
-25 83 c-47 154 -44 152 -77 45z"/>
<path d="M3572 898 c-17 -58 -32 -109 -32 -112 0 -3 29 -6 65 -6 46 0 65 4 64
13 0 6 -15 57 -32 112 l-32 99 -33 -106z"/>
</g>
</svg>
