<?xml version="1.0" standalone="no"?>
<!DOCTYPE svg PUBLIC "-//W3C//DTD SVG 20010904//EN"
 "http://www.w3.org/TR/2001/REC-SVG-20010904/DTD/svg10.dtd">
<svg version="1.0" xmlns="http://www.w3.org/2000/svg"
 width="840.000000pt" height="427.000000pt" viewBox="0 0 840.000000 427.000000"
 preserveAspectRatio="xMidYMid meet">

<g transform="translate(0.000000,427.000000) scale(0.100000,-0.100000)"
fill="#000000" stroke="none">
<path d="M3676 3839 c-22 -5 -55 -21 -73 -35 -30 -23 -46 -26 -185 -35 -646
-43 -674 -45 -717 -69 -45 -26 -81 -74 -101 -134 -10 -32 -11 -71 -1 -200 11
-155 17 -251 61 -901 11 -165 36 -534 55 -820 19 -286 40 -599 46 -695 18
-307 26 -345 92 -409 60 -57 95 -61 382 -41 138 10 358 25 490 34 l240 17 360
-40 c198 -23 501 -57 674 -76 300 -34 316 -35 362 -20 60 20 122 86 137 147 6
24 39 293 72 598 34 305 70 632 80 725 11 94 31 274 45 400 14 127 32 286 40
355 76 659 88 790 75 835 -16 55 -79 130 -123 144 -28 9 -284 41 -572 71 -49
5 -118 13 -153 16 -54 6 -66 11 -80 33 -51 83 -103 111 -206 111 -41 0 -199
-9 -353 -21 -265 -19 -285 -19 -428 -4 -82 9 -157 18 -165 20 -8 1 -33 -1 -54
-6z m1099 -18 c39 -17 95 -72 95 -92 0 -12 -11 -12 -205 11 -93 11 -240 27
-325 35 -85 9 -162 19 -170 22 -15 6 387 39 505 41 39 1 74 -5 100 -17z m-96
-96 c520 -58 964 -110 987 -116 50 -13 87 -46 115 -101 24 -48 26 -91 10 -228
-6 -52 -61 -541 -121 -1086 -61 -545 -112 -1011 -115 -1035 -3 -24 -19 -167
-36 -318 -31 -286 -40 -321 -91 -367 -63 -58 -93 -62 -299 -39 -74 8 -255 29
-404 45 -148 17 -313 35 -365 41 -52 5 -232 25 -400 44 -168 19 -370 41 -448
50 -171 19 -214 34 -253 88 -59 81 -60 36 17 712 13 121 29 263 34 315 6 52
24 214 40 360 17 146 35 308 40 360 6 52 17 151 25 220 15 130 35 312 85 758
23 210 33 270 49 295 38 61 103 106 155 107 16 0 454 -47 975 -105z m-1131 28
c-30 -59 -40 -115 -77 -448 -23 -203 -49 -428 -57 -500 -150 -1333 -215 -1941
-212 -1992 3 -50 10 -71 34 -105 52 -75 85 -86 330 -113 119 -14 226 -25 237
-25 13 0 17 -4 12 -9 -6 -4 -125 -16 -265 -25 -140 -9 -326 -21 -413 -28 -176
-12 -213 -7 -267 39 -64 53 -74 90 -90 342 -53 816 -145 2181 -160 2381 -13
174 -13 282 1 317 14 39 67 92 108 110 22 10 114 20 260 29 124 8 271 19 326
23 136 11 237 13 233 4z"/>
<path d="M3745 3538 c-26 -51 -74 -143 -106 -204 -33 -61 -59 -114 -59 -118 0
-3 13 -6 30 -6 26 0 33 7 61 61 l30 61 57 -6 c121 -15 121 -14 132 -60 23 -89
25 -91 60 -94 24 -3 31 0 28 10 -2 7 -31 111 -63 231 l-59 217 -32 0 c-31 0
-35 -5 -79 -92z m89 -50 c33 -117 36 -108 -27 -108 -31 0 -58 4 -62 10 -5 9
60 150 70 150 2 0 11 -24 19 -52z"/>
<path d="M3655 3065 c-35 -34 -32 -71 16 -162 60 -115 55 -114 125 -30 68 80
88 125 74 162 -9 23 -38 45 -60 45 -6 0 -22 -12 -35 -26 -14 -15 -25 -22 -25
-15 0 16 -37 51 -55 51 -9 0 -27 -11 -40 -25z"/>
<path d="M4356 2304 c-50 -51 -32 -152 49 -279 19 -30 35 -59 35 -63 0 -4 9
-18 18 -30 l18 -24 29 39 c16 21 55 66 86 99 71 76 89 111 89 168 0 54 -29 93
-77 102 -27 5 -37 1 -65 -26 -18 -18 -34 -28 -36 -22 -21 64 -98 83 -146 36z"/>
<path d="M5215 1368 c-58 -64 -85 -111 -85 -148 0 -26 34 -60 60 -60 11 0 29
9 40 20 23 23 30 25 30 7 0 -18 32 -47 52 -47 8 0 24 10 36 23 35 38 29 87
-24 183 -25 46 -47 84 -49 84 -2 0 -29 -28 -60 -62z"/>
<path d="M5039 1038 c9 -37 74 -282 100 -373 16 -55 19 -60 47 -63 29 -3 33 1
79 90 26 51 74 143 106 204 33 61 59 116 59 122 0 7 -13 12 -28 12 -25 0 -32
-8 -57 -60 -28 -59 -29 -60 -69 -60 -23 0 -64 3 -92 6 l-52 7 -16 65 c-9 36
-17 66 -19 68 -1 1 -16 5 -34 8 -31 7 -31 7 -24 -26z m231 -194 c2 -3 -13 -39
-34 -82 -36 -72 -39 -75 -48 -52 -17 45 -36 139 -30 145 7 6 103 -4 112 -11z"/>
<path d="M2912 3518 c-8 -11 -37 -99 -124 -381 -12 -37 -19 -69 -17 -72 3 -2
18 -1 33 3 24 7 31 17 48 70 10 35 24 65 31 67 7 2 47 5 89 8 l78 4 29 -64
c27 -57 33 -63 60 -63 17 0 31 4 31 9 0 5 -28 67 -61 137 -34 71 -78 166 -99
212 -33 70 -42 82 -63 82 -14 0 -29 -6 -35 -12z m74 -161 c17 -39 30 -75 27
-79 -7 -13 -113 -9 -113 3 0 22 41 149 48 149 4 0 21 -33 38 -73z"/>
<path d="M2901 2914 c-35 -52 -51 -86 -51 -108 0 -63 70 -89 97 -36 12 24 13
24 13 3 0 -12 -4 -33 -10 -47 -9 -24 -7 -26 19 -26 38 0 43 8 26 41 -20 38
-19 59 1 31 22 -31 63 -26 84 10 14 26 13 31 -8 70 -19 37 -105 138 -117 138
-2 0 -26 -34 -54 -76z"/>
</g>
</svg>
